<svg xmlns="http://www.w3.org/2000/svg" xmlns:xlink="http://www.w3.org/1999/xlink" viewBox="0 0 61 61.42"><defs><style>.cls-1,.cls-3{fill:none;}.cls-2{clip-path:url(#clip-path);}.cls-3{stroke:#f09509;stroke-linecap:round;stroke-linejoin:round;stroke-width:2px;}</style><clipPath id="clip-path" transform="translate(-1 -2.29)"><rect class="cls-1" width="64" height="64"/></clipPath></defs><title>trust</title><g id="Layer_2" data-name="Layer 2"><g id="Layer_1-2" data-name="Layer 1"><g class="cls-2"><path class="cls-3" d="M37.38,21.18l.12.1,1.87,1.86" transform="translate(-1 -2.29)"/><line class="cls-3" x1="38.72" y1="21.2" x2="38.74" y2="21.21"/><polyline class="cls-3" points="22.27 40.23 22.27 40.23 22.28 40.24"/><line class="cls-3" x1="22.64" y1="40.6" x2="22.28" y2="40.24"/><path class="cls-3" d="M41.45,25.21l7.3,7.27c.11.11.2.23.31.34" transform="translate(-1 -2.29)"/><line class="cls-3" x1="24.62" y1="42.55" x2="22.64" y2="40.6"/><path class="cls-3" d="M25.62,44.84l2.75,2.72L29.87,49a10.08,10.08,0,0,0,1.83,1.43" transform="translate(-1 -2.29)"/><path class="cls-3" d="M21.55,40.81l-7.3-7.27c-.11-.11-.2-.23-.31-.34" transform="translate(-1 -2.29)"/><line class="cls-3" x1="20.55" y1="38.52" x2="22.27" y2="40.23"/><path class="cls-3" d="M13.94,33.21a10.21,10.21,0,0,1-2.71-6.9L7.68,22.77" transform="translate(-1 -2.29)"/><line class="cls-3" x1="22.27" y1="40.23" x2="22.28" y2="40.24"/><path class="cls-3" d="M23.63,42.89l1.86,1.86.12.1" transform="translate(-1 -2.29)"/><line class="cls-3" x1="22.64" y1="40.6" x2="22.28" y2="40.24"/><path class="cls-3" d="M20.47,11.46l2.84,2.83,1.6-.18a10.09,10.09,0,0,1,6.39,1.43" transform="translate(-1 -2.29)"/><line class="cls-3" x1="38.36" y1="20.85" x2="38.72" y2="21.2"/><line class="cls-3" x1="38.36" y1="20.85" x2="36.38" y2="18.89"/><path class="cls-3" d="M31.3,15.54A10,10,0,0,1,33.12,17l1.5,1.49,2.75,2.72" transform="translate(-1 -2.29)"/><polyline class="cls-3" points="40.82 23.29 38.74 21.21 38.72 21.2"/><polyline class="cls-3" points="1 17.65 5.26 21.89 6.68 20.48"/><polyline class="cls-3" points="6.68 20.48 20.19 7.04 15.92 2.8"/><path class="cls-3" d="M53.16,22l-2.84,2.83.18,1.59a10,10,0,0,1-1.44,6.36" transform="translate(-1 -2.29)"/><path class="cls-3" d="M41.79,9.31l-3.55,3.54a10.31,10.31,0,0,0-6.94,2.69" transform="translate(-1 -2.29)"/><line class="cls-3" x1="22.64" y1="40.6" x2="22.64" y2="40.6"/><polyline class="cls-3" points="40.8 7.02 39.37 5.61 44.01 1"/><polyline class="cls-3" points="40.8 7.02 54.3 20.46 58.93 15.85"/><line class="cls-3" x1="38.36" y1="20.85" x2="38.37" y2="20.85"/><path class="cls-3" d="M9.83,44l2.84-2.83-.18-1.59a10,10,0,0,1,1.44-6.36" transform="translate(-1 -2.29)"/><path class="cls-3" d="M31.7,50.48a10.31,10.31,0,0,1-6.94,2.69l-3.55,3.54" transform="translate(-1 -2.29)"/><polyline class="cls-3" points="20.21 54.42 6.71 40.98 2.1 45.57"/><polyline class="cls-3" points="20.21 54.42 21.63 55.83 17.02 60.42"/><path class="cls-3" d="M55.32,43.25l-3.55-3.54a10.22,10.22,0,0,0-3-7.24L37.5,21.28a2.45,2.45,0,0,0-3.45,0l0,0a2.49,2.49,0,0,0,0,3.54l6.4,6.37-9.64-9.6a2.45,2.45,0,0,0-3.45,0l0,0a2.49,2.49,0,0,0,0,3.54l8.18,8.14-9.59-9.55a2.52,2.52,0,0,0-3.55,0,2.49,2.49,0,0,0,0,3.54l9.59,9.55L23.64,28.7a2.45,2.45,0,0,0-3.45,0l0,0a2.49,2.49,0,0,0,0,3.54L32.58,44.67l-5.22-5.19a2.68,2.68,0,0,0-3.78,0l-.32.32a1.91,1.91,0,0,0,0,2.72l5.11,5L29.87,49a10.08,10.08,0,0,0,8.22,2.87l1.59-.18,2.84,2.83" transform="translate(-1 -2.29)"/><polyline class="cls-3" points="45.08 58.64 40.82 54.4 55.74 39.55 60.01 43.79"/></g></g></g></svg>