<svg xmlns="http://www.w3.org/2000/svg" viewBox="0 0 46 44.61"><defs><style>.cls-1{fill:none;stroke:#f09509;stroke-miterlimit:10;stroke-width:2px;}</style></defs><title>our-brands</title><g id="Layer_2" data-name="Layer 2"><g id="icons"><path class="cls-1" d="M28,32V29c0-1.14-2.75-3-5-3s-5,1.85-5,3v3"/><circle class="cls-1" cx="23" cy="25" r="11"/><path class="cls-1" d="M23,26a3.13,3.13,0,0,1-3-3.41V21.41A3.13,3.13,0,0,1,23,18a3.13,3.13,0,0,1,3,3.41v1.14A3.13,3.13,0,0,1,23,26Z"/><path class="cls-1" d="M20,12c0-1.14-2.75-3-5-3s-5,1.85-5,3v3"/><path class="cls-1" d="M15,9a3.13,3.13,0,0,1-3-3.41V4.41A3.13,3.13,0,0,1,15,1a3.13,3.13,0,0,1,3,3.41V5.55A3.13,3.13,0,0,1,15,9Z"/><path class="cls-1" d="M26,12c0-1.14,2.75-3,5-3s5,1.85,5,3v3"/><path class="cls-1" d="M31,9a3.13,3.13,0,0,0,3-3.41V4.41a3,3,0,1,0-6,0V5.55A3.13,3.13,0,0,0,31,9Z"/><path class="cls-1" d="M45,31V28c0-1.14-2.75-3-5-3a6.94,6.94,0,0,0-4,1.54"/><path class="cls-1" d="M40,25a3.13,3.13,0,0,1-3-3.41V20.41a3,3,0,1,1,6,0v1.14A3.13,3.13,0,0,1,40,25Z"/><path class="cls-1" d="M1,31V28c0-1.14,2.75-3,5-3a6.94,6.94,0,0,1,4,1.54"/><path class="cls-1" d="M6,25a3.13,3.13,0,0,0,3-3.41V20.41A3.13,3.13,0,0,0,6,17a3.13,3.13,0,0,0-3,3.41v1.14A3.13,3.13,0,0,0,6,25Z"/><path class="cls-1" d="M32.32,31l8.49,8.49a2,2,0,0,1,0,2.83L40.1,43a2,2,0,0,1-2.83,0l-8.49-8.49"/></g></g></svg>