<svg xmlns="http://www.w3.org/2000/svg" viewBox="0 0 1449.24 1075.93"><defs><style>.cls-1{fill:#f09509;}</style></defs><title>start</title><g id="Layer_2" data-name="Layer 2"><g id="Layer_1-2" data-name="Layer 1"><polygon class="cls-1" points="719.38 492.03 978.09 128.22 0 128.22 113.31 310.13 0 492.03 719.38 492.03"/><polygon class="cls-1" points="1449.24 128.22 1192.79 128.22 954.23 492.03 1449.24 492.03 1341.89 310.13 1449.24 128.22"/><polygon class="cls-1" points="348.89 0 316.09 101.39 432.39 101.39 348.89 0"/><path class="cls-1" d="M1039.24,764.79A155.25,155.25,0,0,0,917,824.15c-28.94-28-48.24-65.08-65.22-101.12-15.8-33.58-44-74.91-19.26-110.57L1145.06,161C1168.92,32.82,1106.3,0,1106.3,0l-375,515.88H560.59c14.43,21,29,42,43.18,63.22,33.64,50.1,47.29,77.65,18.37,133.71-21.05,40.73-48.25,76.58-76,112.9-1-1.1-2.07-2.13-3.12-3.18a155.52,155.52,0,1,0,25.26,151.07c16.25-25.62,30.57-52.31,44.23-76.2.48-.84.78-1.43,1-1.85l.36-.54c35.19-58.69,74.91-119.7,74.91-119.7,10.26-15.57,26.54-49.5,50.34-43.42,21.83,5.55,48.79,53.79,61.49,71.27,41.42,57,70.48,121.47,100.78,184.71,25.73,53.71,77.17,88,137.82,88a155.57,155.57,0,0,0,0-311.14ZM422.1,1027.18A106.82,106.82,0,1,1,528.93,920.36,106.83,106.83,0,0,1,422.1,1027.18Zm617.14,0a106.82,106.82,0,1,1,106.82-106.82A106.82,106.82,0,0,1,1039.24,1027.18Z"/></g></g></svg>